<svg id="svg" version="1.1" xmlns="http://www.w3.org/2000/svg" xmlns:xlink="http://www.w3.org/1999/xlink" width="25" height="25" viewBox="0, 0, 400,400"><g id="svgg"><path id="path0" d="M0.000 200.000 L 0.000 400.000 200.000 400.000 L 400.000 400.000 400.000 200.000 L 400.000 0.000 200.000 0.000 L 0.000 0.000 0.000 200.000 M387.117 12.915 L 388.800 14.630 388.800 200.000 L 388.800 385.370 387.117 387.085 L 385.433 388.800 202.217 388.773 L 19.000 388.747 16.400 387.473 C 13.979 386.288,13.712 386.021,12.527 383.600 L 11.253 381.000 11.212 219.400 C 11.181 94.248,11.062 57.304,10.686 55.600 C 10.330 53.988,10.239 48.215,10.345 34.000 L 10.489 14.600 12.545 12.929 L 14.600 11.258 200.017 11.229 L 385.433 11.200 387.117 12.915 M141.301 103.362 C 140.885 103.892,140.322 105.317,140.051 106.530 C 139.702 108.088,139.271 108.924,138.584 109.374 C 137.337 110.191,136.179 112.495,135.837 114.840 C 135.645 116.155,135.221 117.011,134.349 117.840 C 132.689 119.418,132.152 120.586,131.815 123.356 C 131.557 125.475,131.351 125.873,129.764 127.317 C 128.010 128.913,128.000 128.939,128.000 131.631 L 128.000 134.338 125.800 136.218 L 123.600 138.097 123.598 140.549 C 123.595 143.958,122.963 145.892,121.198 147.897 C 120.025 149.230,119.537 150.262,119.039 152.467 C 118.527 154.737,118.080 155.658,116.837 157.006 C 115.666 158.277,115.161 159.263,114.806 160.973 C 114.512 162.389,113.914 163.730,113.222 164.524 C 111.459 166.548,110.800 168.184,110.800 170.532 C 110.800 172.669,110.766 172.732,108.600 174.582 L 106.400 176.462 106.400 179.032 L 106.400 181.601 104.400 183.038 L 102.400 184.475 102.400 187.084 C 102.400 189.506,102.312 189.767,101.162 190.746 C 97.944 193.485,98.000 193.391,97.998 196.082 C 97.995 199.571,97.367 201.553,95.724 203.258 C 94.683 204.339,94.118 205.470,93.537 207.634 C 92.986 209.692,92.354 210.996,91.399 212.054 C 90.653 212.879,89.843 214.330,89.599 215.277 C 88.739 218.613,88.332 219.602,87.609 220.109 C 86.389 220.963,85.307 223.281,85.057 225.575 C 84.846 227.511,84.622 227.931,83.010 229.411 C 81.217 231.058,81.200 231.097,81.200 233.694 C 81.200 236.492,81.188 236.512,77.807 239.486 C 76.944 240.244,76.800 240.710,76.800 242.737 L 76.800 245.103 74.600 246.982 L 72.400 248.862 72.400 251.358 C 72.400 254.465,71.436 257.846,70.391 258.405 C 69.120 259.085,68.400 260.967,68.400 263.611 C 68.400 266.177,67.917 266.966,65.221 268.800 C 64.616 269.212,64.151 270.212,63.741 271.989 C 63.265 274.049,62.793 274.952,61.432 276.407 C 59.912 278.032,59.690 278.518,59.435 280.775 C 59.182 283.010,58.978 283.464,57.738 284.557 C 55.595 286.446,55.365 287.098,56.435 288.238 L 57.339 289.200 74.634 289.200 L 91.929 289.200 92.908 288.036 C 93.511 287.320,93.988 286.115,94.149 284.901 C 94.332 283.519,94.719 282.641,95.443 281.965 C 96.768 280.727,97.370 279.520,98.000 276.841 C 98.321 275.479,98.983 274.151,99.796 273.241 C 101.660 271.156,102.000 270.318,102.000 267.812 C 102.000 265.988,102.167 265.426,102.900 264.786 C 104.284 263.579,105.747 262.110,109.362 258.300 C 111.188 256.375,112.889 254.800,113.140 254.800 C 113.392 254.800,114.273 254.195,115.099 253.455 L 116.600 252.110 131.840 252.057 C 146.551 252.006,147.105 252.032,147.796 252.796 C 148.190 253.231,149.473 254.129,150.647 254.792 C 152.120 255.623,153.027 256.477,153.572 257.545 C 154.006 258.396,154.828 259.647,155.397 260.323 L 156.432 261.554 156.516 274.461 L 156.600 287.368 157.959 288.284 C 159.316 289.198,159.344 289.200,174.389 289.200 L 189.461 289.200 190.296 288.300 C 191.134 287.397,191.406 283.899,191.244 276.113 C 191.203 274.165,190.037 272.223,187.506 269.887 C 187.454 269.839,187.319 232.514,187.206 186.942 C 187.005 106.177,186.981 104.063,186.238 103.242 C 185.481 102.406,185.328 102.400,163.767 102.400 L 142.058 102.400 141.301 103.362 M281.855 103.455 C 281.275 104.035,280.800 104.662,280.800 104.850 C 280.800 105.037,280.035 105.669,279.100 106.255 C 276.882 107.644,276.813 107.775,276.806 110.625 C 276.800 112.953,275.930 114.800,274.839 114.800 C 273.522 114.800,272.400 116.985,272.398 119.555 C 272.395 123.080,271.784 125.096,270.179 126.874 C 269.291 127.858,268.567 129.319,267.999 131.274 C 267.485 133.040,266.783 134.517,266.229 135.000 C 264.814 136.232,264.116 137.590,263.609 140.097 C 263.295 141.650,262.788 142.751,262.045 143.497 C 260.351 145.196,259.713 146.403,259.219 148.846 C 258.918 150.336,258.422 151.414,257.745 152.046 C 256.313 153.384,255.689 154.738,255.359 157.222 C 255.122 159.013,254.782 159.681,253.308 161.257 C 251.912 162.750,251.420 163.667,250.960 165.640 C 250.519 167.530,249.993 168.552,248.789 169.858 C 247.381 171.386,247.200 171.809,247.200 173.571 C 247.200 176.971,246.441 179.552,244.959 181.193 C 243.364 182.959,242.583 184.684,242.191 187.310 C 241.986 188.687,241.576 189.525,240.727 190.310 C 238.964 191.939,238.400 193.303,238.400 195.943 C 238.400 198.312,238.389 198.335,236.400 200.000 C 234.409 201.667,234.400 201.686,234.400 204.068 C 234.400 206.606,233.909 207.377,231.056 209.319 C 230.097 209.971,230.000 210.276,230.000 212.633 C 230.000 214.826,229.860 215.350,229.100 216.011 C 225.344 219.276,225.474 219.069,225.745 221.370 C 225.990 223.453,224.873 225.600,223.545 225.600 C 222.350 225.600,221.600 227.276,221.600 229.950 C 221.600 233.207,220.793 235.745,219.231 237.399 C 217.813 238.900,217.429 239.674,216.823 242.258 C 216.536 243.483,215.932 244.698,215.331 245.258 C 213.950 246.547,212.960 248.625,212.622 250.942 C 212.404 252.436,211.964 253.291,210.721 254.639 C 209.413 256.059,208.995 256.910,208.537 259.097 C 208.071 261.318,207.687 262.088,206.383 263.418 C 205.178 264.646,204.613 265.692,204.039 267.761 C 203.495 269.725,202.931 270.808,202.024 271.637 C 201.331 272.270,200.506 273.405,200.191 274.160 C 199.876 274.914,198.804 276.199,197.809 277.014 L 196.000 278.496 196.000 282.973 C 196.000 289.825,194.118 289.200,214.761 289.200 L 231.891 289.200 232.945 288.145 C 233.578 287.513,234.000 286.647,234.000 285.981 C 234.000 283.039,235.189 278.718,236.368 277.376 C 237.061 276.586,237.905 274.863,238.382 273.262 C 238.833 271.747,239.742 269.828,240.402 268.998 C 241.061 268.168,241.803 266.748,242.049 265.844 C 243.083 262.044,243.344 261.488,244.661 260.290 C 245.421 259.598,246.416 258.368,246.873 257.556 C 247.872 255.778,248.709 255.329,251.624 255.007 C 253.703 254.778,254.403 254.470,256.866 252.709 C 257.730 252.091,259.165 252.014,270.367 251.982 L 282.901 251.947 283.950 252.952 C 284.528 253.504,286.080 254.430,287.400 255.010 C 288.720 255.589,290.400 256.633,291.134 257.331 C 293.694 259.765,293.671 259.626,293.791 274.081 C 293.900 287.191,293.904 287.247,294.820 288.221 L 295.739 289.200 310.670 289.200 C 324.754 289.200,325.643 289.157,326.353 288.447 C 327.512 287.288,327.683 271.954,327.532 182.465 L 327.400 103.929 326.456 103.165 C 325.552 102.433,324.586 102.400,304.210 102.400 L 282.909 102.400 281.855 103.455 M152.581 173.784 C 153.098 175.777,153.200 179.366,153.200 195.648 L 153.200 215.129 151.969 216.164 L 150.739 217.200 142.200 217.200 L 133.661 217.200 132.423 216.158 C 130.586 214.613,131.208 210.539,133.935 206.238 C 134.616 205.165,135.545 203.168,136.000 201.800 C 136.455 200.432,137.371 198.456,138.036 197.408 C 138.700 196.361,139.775 194.047,140.425 192.267 C 141.075 190.487,142.062 188.342,142.619 187.500 C 143.176 186.659,144.154 184.612,144.793 182.952 C 145.432 181.292,146.409 179.339,146.964 178.611 C 147.519 177.884,148.533 175.879,149.217 174.156 C 149.902 172.433,150.559 170.866,150.678 170.673 C 151.096 169.997,151.969 171.424,152.581 173.784 M292.271 174.600 C 292.816 178.043,292.666 213.114,292.101 214.450 C 291.155 216.691,288.839 217.271,281.034 217.219 C 270.813 217.152,268.420 216.297,269.966 213.266 C 270.414 212.389,271.335 210.274,272.013 208.568 C 272.691 206.861,273.687 204.711,274.227 203.790 C 274.767 202.869,275.646 200.828,276.181 199.255 C 276.716 197.682,277.791 195.361,278.569 194.098 C 279.348 192.834,280.425 190.501,280.964 188.913 C 281.503 187.326,282.461 185.256,283.093 184.313 C 283.725 183.371,284.759 181.340,285.392 179.800 C 286.149 177.956,287.114 176.454,288.219 175.400 C 289.141 174.520,290.216 173.296,290.607 172.679 C 291.505 171.266,291.798 171.604,292.271 174.600 " stroke="none" fill="#181310" fill-rule="evenodd"></path><path id="path1" d="M12.545 12.929 L 10.489 14.600 10.345 34.000 C 10.239 48.215,10.330 53.988,10.686 55.600 C 11.062 57.304,11.181 94.248,11.212 219.400 L 11.253 381.000 12.527 383.600 C 13.712 386.021,13.979 386.288,16.400 387.473 L 19.000 388.747 202.217 388.773 L 385.433 388.800 387.117 387.085 L 388.800 385.370 388.800 200.000 L 388.800 14.630 387.117 12.915 L 385.433 11.200 200.017 11.229 L 14.600 11.258 12.545 12.929 M186.238 103.242 C 186.981 104.063,187.005 106.177,187.206 186.942 C 187.319 232.514,187.454 269.839,187.506 269.887 C 190.037 272.223,191.203 274.165,191.244 276.113 C 191.406 283.899,191.134 287.397,190.296 288.300 L 189.461 289.200 174.389 289.200 C 159.344 289.200,159.316 289.198,157.959 288.284 L 156.600 287.368 156.516 274.461 L 156.432 261.554 155.397 260.323 C 154.828 259.647,154.006 258.396,153.572 257.545 C 153.027 256.477,152.120 255.623,150.647 254.792 C 149.473 254.129,148.190 253.231,147.796 252.796 C 147.105 252.032,146.551 252.006,131.840 252.057 L 116.600 252.110 115.099 253.455 C 114.273 254.195,113.392 254.800,113.140 254.800 C 112.889 254.800,111.188 256.375,109.362 258.300 C 105.747 262.110,104.284 263.579,102.900 264.786 C 102.167 265.426,102.000 265.988,102.000 267.812 C 102.000 270.318,101.660 271.156,99.796 273.241 C 98.983 274.151,98.321 275.479,98.000 276.841 C 97.370 279.520,96.768 280.727,95.443 281.965 C 94.719 282.641,94.332 283.519,94.149 284.901 C 93.988 286.115,93.511 287.320,92.908 288.036 L 91.929 289.200 74.634 289.200 L 57.339 289.200 56.435 288.238 C 55.365 287.098,55.595 286.446,57.738 284.557 C 58.978 283.464,59.182 283.010,59.435 280.775 C 59.690 278.518,59.912 278.032,61.432 276.407 C 62.793 274.952,63.265 274.049,63.741 271.989 C 64.151 270.212,64.616 269.212,65.221 268.800 C 67.917 266.966,68.400 266.177,68.400 263.611 C 68.400 260.967,69.120 259.085,70.391 258.405 C 71.436 257.846,72.400 254.465,72.400 251.358 L 72.400 248.862 74.600 246.982 L 76.800 245.103 76.800 242.737 C 76.800 240.710,76.944 240.244,77.807 239.486 C 81.188 236.512,81.200 236.492,81.200 233.694 C 81.200 231.097,81.217 231.058,83.010 229.411 C 84.622 227.931,84.846 227.511,85.057 225.575 C 85.307 223.281,86.389 220.963,87.609 220.109 C 88.332 219.602,88.739 218.613,89.599 215.277 C 89.843 214.330,90.653 212.879,91.399 212.054 C 92.354 210.996,92.986 209.692,93.537 207.634 C 94.118 205.470,94.683 204.339,95.724 203.258 C 97.367 201.553,97.995 199.571,97.998 196.082 C 98.000 193.391,97.944 193.485,101.162 190.746 C 102.312 189.767,102.400 189.506,102.400 187.084 L 102.400 184.475 104.400 183.038 L 106.400 181.601 106.400 179.032 L 106.400 176.462 108.600 174.582 C 110.766 172.732,110.800 172.669,110.800 170.532 C 110.800 168.184,111.459 166.548,113.222 164.524 C 113.914 163.730,114.512 162.389,114.806 160.973 C 115.161 159.263,115.666 158.277,116.837 157.006 C 118.080 155.658,118.527 154.737,119.039 152.467 C 119.537 150.262,120.025 149.230,121.198 147.897 C 122.963 145.892,123.595 143.958,123.598 140.549 L 123.600 138.097 125.800 136.218 L 128.000 134.338 128.000 131.631 C 128.000 128.939,128.010 128.913,129.764 127.317 C 131.351 125.873,131.557 125.475,131.815 123.356 C 132.152 120.586,132.689 119.418,134.349 117.840 C 135.221 117.011,135.645 116.155,135.837 114.840 C 136.179 112.495,137.337 110.191,138.584 109.374 C 139.271 108.924,139.702 108.088,140.051 106.530 C 140.322 105.317,140.885 103.892,141.301 103.362 L 142.058 102.400 163.767 102.400 C 185.328 102.400,185.481 102.406,186.238 103.242 M326.456 103.165 L 327.400 103.929 327.532 182.465 C 327.683 271.954,327.512 287.288,326.353 288.447 C 325.643 289.157,324.754 289.200,310.670 289.200 L 295.739 289.200 294.820 288.221 C 293.904 287.247,293.900 287.191,293.791 274.081 C 293.671 259.626,293.694 259.765,291.134 257.331 C 290.400 256.633,288.720 255.589,287.400 255.010 C 286.080 254.430,284.528 253.504,283.950 252.952 L 282.901 251.947 270.367 251.982 C 259.165 252.014,257.730 252.091,256.866 252.709 C 254.403 254.470,253.703 254.778,251.624 255.007 C 248.709 255.329,247.872 255.778,246.873 257.556 C 246.416 258.368,245.421 259.598,244.661 260.290 C 243.344 261.488,243.083 262.044,242.049 265.844 C 241.803 266.748,241.061 268.168,240.402 268.998 C 239.742 269.828,238.833 271.747,238.382 273.262 C 237.905 274.863,237.061 276.586,236.368 277.376 C 235.189 278.718,234.000 283.039,234.000 285.981 C 234.000 286.647,233.578 287.513,232.945 288.145 L 231.891 289.200 214.761 289.200 C 194.118 289.200,196.000 289.825,196.000 282.973 L 196.000 278.496 197.809 277.014 C 198.804 276.199,199.876 274.914,200.191 274.160 C 200.506 273.405,201.331 272.270,202.024 271.637 C 202.931 270.808,203.495 269.725,204.039 267.761 C 204.613 265.692,205.178 264.646,206.383 263.418 C 207.687 262.088,208.071 261.318,208.537 259.097 C 208.995 256.910,209.413 256.059,210.721 254.639 C 211.964 253.291,212.404 252.436,212.622 250.942 C 212.960 248.625,213.950 246.547,215.331 245.258 C 215.932 244.698,216.536 243.483,216.823 242.258 C 217.429 239.674,217.813 238.900,219.231 237.399 C 220.793 235.745,221.600 233.207,221.600 229.950 C 221.600 227.276,222.350 225.600,223.545 225.600 C 224.873 225.600,225.990 223.453,225.745 221.370 C 225.474 219.069,225.344 219.276,229.100 216.011 C 229.860 215.350,230.000 214.826,230.000 212.633 C 230.000 210.276,230.097 209.971,231.056 209.319 C 233.909 207.377,234.400 206.606,234.400 204.068 C 234.400 201.686,234.409 201.667,236.400 200.000 C 238.389 198.335,238.400 198.312,238.400 195.943 C 238.400 193.303,238.964 191.939,240.727 190.310 C 241.576 189.525,241.986 188.687,242.191 187.310 C 242.583 184.684,243.364 182.959,244.959 181.193 C 246.441 179.552,247.200 176.971,247.200 173.571 C 247.200 171.809,247.381 171.386,248.789 169.858 C 249.993 168.552,250.519 167.530,250.960 165.640 C 251.420 163.667,251.912 162.750,253.308 161.257 C 254.782 159.681,255.122 159.013,255.359 157.222 C 255.689 154.738,256.313 153.384,257.745 152.046 C 258.422 151.414,258.918 150.336,259.219 148.846 C 259.713 146.403,260.351 145.196,262.045 143.497 C 262.788 142.751,263.295 141.650,263.609 140.097 C 264.116 137.590,264.814 136.232,266.229 135.000 C 266.783 134.517,267.485 133.040,267.999 131.274 C 268.567 129.319,269.291 127.858,270.179 126.874 C 271.784 125.096,272.395 123.080,272.398 119.555 C 272.400 116.985,273.522 114.800,274.839 114.800 C 275.930 114.800,276.800 112.953,276.806 110.625 C 276.813 107.775,276.882 107.644,279.100 106.255 C 280.035 105.669,280.800 105.037,280.800 104.850 C 280.800 104.662,281.275 104.035,281.855 103.455 L 282.909 102.400 304.210 102.400 C 324.586 102.400,325.552 102.433,326.456 103.165 M150.678 170.673 C 150.559 170.866,149.902 172.433,149.217 174.156 C 148.533 175.879,147.519 177.884,146.964 178.611 C 146.409 179.339,145.432 181.292,144.793 182.952 C 144.154 184.612,143.176 186.659,142.619 187.500 C 142.062 188.342,141.075 190.487,140.425 192.267 C 139.775 194.047,138.700 196.361,138.036 197.408 C 137.371 198.456,136.455 200.432,136.000 201.800 C 135.545 203.168,134.616 205.165,133.935 206.238 C 131.208 210.539,130.586 214.613,132.423 216.158 L 133.661 217.200 142.200 217.200 L 150.739 217.200 151.969 216.164 L 153.200 215.129 153.200 195.648 C 153.200 179.366,153.098 175.777,152.581 173.784 C 151.969 171.424,151.096 169.997,150.678 170.673 M290.607 172.679 C 290.216 173.296,289.141 174.520,288.219 175.400 C 287.114 176.454,286.149 177.956,285.392 179.800 C 284.759 181.340,283.725 183.371,283.093 184.313 C 282.461 185.256,281.503 187.326,280.964 188.913 C 280.425 190.501,279.348 192.834,278.569 194.098 C 277.791 195.361,276.716 197.682,276.181 199.255 C 275.646 200.828,274.767 202.869,274.227 203.790 C 273.687 204.711,272.691 206.861,272.013 208.568 C 271.335 210.274,270.414 212.389,269.966 213.266 C 268.420 216.297,270.813 217.152,281.034 217.219 C 293.295 217.300,292.529 218.758,292.598 195.200 C 292.659 174.007,292.306 170.005,290.607 172.679 " stroke="none" fill="#fccb1b" fill-rule="evenodd"></path></g></svg>